# xmcd
#
# Track frame offsets: 
#        150
#        8917
#        20262
#        29765
#        39317
#        50317
#        60037
#        68872
#        77085
#        84625
#        95645
#        106017
#        113502
#        121340
#        131127
#        141277
#        150420
#        159935
#        165702
#        175530
#
# Disc length: 2442 seconds
#
# Revision: 0
# Processed by: cddbd v1.5.1PL2 Copyright (c) Steve Scherf et al.
# Submitted via: ExactAudioCopy v0.95b4
#
DISCID=ed098814
DTITLE=Johnny Cash - The Sun Years 1955-1958 Disk 2
DYEAR=1991
DGENRE=country
TTITLE0=Remember Me
TTITLE1=Wide Open Road
TTITLE2=Rock Island Line
TTITLE3=Ballad Of A Teenage Queen
TTITLE4=Big River
TTITLE5=Straight "A"s In Love
TTITLE6=Two Timin' Woman
TTITLE7=Guess Things Happen That Way
TTITLE8=Come In Stranger
TTITLE9=Oh, Lonesome Me
TTITLE10=Cold Cold Heart
TTITLE11=Hey Good Lookin'
TTITLE12=I Can't Help It
TTITLE13=I Could Never Be Ashamed Of You
TTITLE14=You Could Win Again
TTITLE15=Down The Street To 301
TTITLE16=The Story Of A Brioken Heart
TTITLE17=You Tell Me
TTITLE18=Goodbye Little Darling
TTITLE19=Sugartime
EXTD=
EXTT0=
EXTT1=
EXTT2=
EXTT3=
EXTT4=
EXTT5=
EXTT6=
EXTT7=
EXTT8=
EXTT9=
EXTT10=
EXTT11=
EXTT12=
EXTT13=
EXTT14=
EXTT15=
EXTT16=
EXTT17=
EXTT18=
EXTT19=
PLAYORDER=
